<svg width="210mm" height="297mm" version="1.1" viewBox="0 0 210 297" xmlns="http://www.w3.org/2000/svg">
 <g transform="matrix(2.823 0 0 2.9779 -98.408 -69.42)" fill="#d0d0d0" stroke="#d1d1d1">
  <text transform="scale(.26458)" stroke-width="1.9553" style="shape-inside:url(#rect27);white-space:pre" xml:space="preserve"/>
  <g transform="translate(10.042,-3.9749)" stroke-width=".51735">
   <path d="m55.592 37.871c.2199-.67141.87783-2.4398.50612-3.0697-.14395-.24393-.38578-.40909-.57868-.61364-.65352-.34441-1.278-.7556-1.9606-1.0332-.44129-.1795-.91633-.26582-1.3866-.3282-1.9288-.25588-3.8877.0597-5.6838.8219-.71404.30303-1.3768.72202-2.0653 1.083-.66579.52128-1.371.99257-1.9974 1.5638-2.7179 2.4786-4.8575 5.9602-6.3087 9.3722-.30063.70683-.53366 1.4424-.80048 2.1636-.41361 1.4992-.79981 3.0602-.57163 4.6327.05844.4023.25278 1.1116.62041 1.3781.50626.36708 1.0917.60036 1.6376.90054.4351.01174.87178.07538 1.3053.03532 3.2603-.30191 6.1847-2.3333 8.6142-4.4578.71037-.62122 1.3629-1.31 2.0443-1.9651 2.7361-2.8712 5.0128-6.154 7.4307-9.3047.58967-.73682 1.1164-1.5256 1.5805-2.3526.13177-.23486.31261-.56725.25168-.62039-.30234-.26368-.67988-.41785-1.0198-.62678-1.7383 2.0416-2.6392 4.6853-3.5488 7.1927-.62198 1.9831-1.2649 3.9636-1.5174 6.0417-.11572.95244-.16384 1.8996.02573 2.846.06465.32274.21003.62232.31505.93348.64905.9261.62123 1.065 2.0426 1.6145.32364.12511.6918.0764 1.0357.04175 1.8781-.18892 3.4871-1.1196 5.1285-1.9969 1.5489-.92478 2.9469-2.0682 4.3113-3.2539l-.89409-.57763c-1.3464 1.1925-2.7306 2.3362-4.2775 3.2469-1.4603.76763-2.1325 1.2262-3.6785 1.6675-2.8046.80058-.24828-.02618-2.4562.17639-.08875.0079.26284.23907.219.15875-.12343-.22612-.31082-.40778-.46623-.61169-.1111-.30447-.26382-.59601-.33328-.91345-.20354-.93024-.16308-1.889-.05462-2.8272.23966-2.074.87982-4.0515 1.4999-6.0285.87992-2.4026 1.7859-5.1164 3.5159-7.0298-.26868-.19352-.50746-.44177-.80606-.58059-.05778-.02686-8.7e-5.13408-.02289.19527-.05146.13843-.12668.26632-.19701.39558-.45116.82922-.97715 1.6127-1.5588 2.3495-2.3978 3.1575-4.6567 6.4453-7.3863 9.3134-.67879.65287-1.3276 1.3408-2.0364 1.9586-2.3947 2.0872-5.3885 4.1428-8.6115 4.3698-.43047.03036-.86149-.05168-1.2922-.07741.51526.62938-.19425-.23314-.23643-.31812-.1206-.24297-.19222-.51271-.23698-.78191-.25911-1.5587.12165-3.1162.52256-4.607.26217-.7202.48982-1.4549.78653-2.1606 1.4419-3.4294 3.55-6.8507 6.2868-9.3279.62455-.56533 1.328-1.0299 1.9919-1.5448.68685-.35493 1.3484-.768 2.0606-1.0648 1.2536-.52239 2.5821-.82168 3.9327-.87129 1.9587-.072 1.3753.13586 3.1152.45647.05168.009.0954-.04548.14317-.06827.19876.18474.44238.32822.59627.55422.4035.59257-.25879 2.3605-.48213 3.0033z"/>
   <path d="m60.982 34.07c1.2664-.08901 2.5215-.04927 3.7703.07971.50837.05248 1.6494.17048 2.1913.38941.19642.07933.36512.24454.54768.36681-.17411-.08089-.36974-.42283-.52232-.24268-.15032.17753.07385.50974.07292.77333-.001.30729-.03982.61815-.07872.92585-.16251 1.2854-.45072 2.562-.72064 3.8216-.12911.53544-.2402 1.078-.38729 1.6063-.26341.94652-.90609 2.8269-1.1962 3.7218-.5441 1.6783-1.0742 3.3579-1.5609 5.0642-.10585.41347-.21563.82547-.3175 1.2404-.06961.2832-.13427.56821-.19682.85377-.05116.23343-.13012.64789-.12314.65167 1.1667.63491.88646.70214 1.251-.68014 1.681-5.068 4.1546-9.5785 6.4738-14.141.75642-1.3167 1.6864-3.7248 3.0902-3.2353.13948.04862.25999.16078.39.24118.84584.79648-.11983-.18604-.19552-.25047-.09264-.07886.16759.19204.24413.29906.14843.20752.24824.45693.37017.69364.0168.03893.10602.22813.11058.2957.04296.63593-.21421 2.013-.27989 2.4984-.10335.76098-.20877 1.5217-.31322 2.2825-.40522 2.6086-.978 5.1781-1.5499 7.7429-.28848 1.2937-.57942 2.5422-.9779 3.7878-.04492.10729-.08983.21459-.13475.32188-.01604.01248-.0624.02504-.04814.03741.27015.23359.50621.63999.83606.6439.15837.0019.13916-.42437.21714-.63143.27431-.72871.79364-1.943 1.0511-2.5581 1.7911-3.9199 3.8002-7.6433 5.9388-11.216 1.023-1.5419 1.9707-2.9962 3.402-3.6035.39108-.05278.79548.03274 1.1055.33279-.21372-.2222-.40883-.48218-.64114-.6666-.06864-.05445.10072.1708.13912.26807.21746.5509.2566 1.1527.29954 1.7886.08167 1.784-.32428 3.5368-.66518 5.286-.37276 2.0757-.75618 4.1597-.93804 6.2626-.02813 1.3366-.37326 3.2266.10364 4.3842.83401 1.1609 1.7423 1.7612 2.8752 2.1704.91286.2604 1.8513.38033 2.7906.47129.38188-.15455.60232-.79244.81184-1.2477 0 0-.82235-.87498-.82235-.87498-.18057.40065-.38101 1.0189-.72575 1.1125-.93422-.08543-1.8673-.208-2.771-.48499-.45507-.17298-.87536-.36119-1.2939-.64821-.10349-.07097-.21106-.13225-.3106-.21269-.0857-.06924-.31661-.32827-.24376-.2353.18675.23834.39098.44846.58647.67269-.13161-.24923-.2108-.34654-.25233-.69597-.02384-.20043-.0105-.4114-.01168-.61779-.0056-.99278.01374-1.9916.10724-2.9909.17821-2.0962.55047-4.176.92639-6.2443.34644-1.7623.76043-3.5243.69777-5.3251-.11626-1.8925-.19542-2.0392-1.3648-3.2336-.35506-.24931-.7503-.34606-1.1672-.23554-1.4373.67362-2.3965 2.1239-3.4257 3.7018-2.1368 3.5863-4.1372 7.3283-5.9524 11.236-.40531.94483-.70992 1.6272-1.0729 2.5501-.08842.22488-.32446.46538-.25499.68152.15713.48887.5267.75926.82295 1.0856.08978.09888.21044-.83667.21163-.4389.38835-1.2619.67477-2.5241.96082-3.8291.56378-2.572 1.1392-5.1444 1.5589-7.7546.10827-.75702.21659-1.514.32574-2.2709.10311-.71954.32939-1.7677.336-2.5487.00028-.06544-.082-.29961-.09388-.33626-.13923-.22569-.2172-.50033-.36475-.71941-.47714-.70844-1.0536-1.3085-1.667-1.775-.13783-.06866-.26768-.16951-.41349-.20594-1.4507-.36238-2.3645 2.0031-3.142 3.3936-2.3067 4.5901-4.7838 9.1016-6.5149 14.152-.41213 1.5016-.46847.9019.42883 2.3354.02182.03479.0037-.09842.01147-.14705.02603-.16632.05645-.33199.09023-.49654.17844-.86699.26589-1.167.49781-2.0958.48156-1.7066 1.0052-3.3879 1.5495-5.0642.27896-.85913.95365-2.8188 1.2104-3.7295.14903-.5287.26161-1.0721.39241-1.6081.27588-1.2659.56376-2.5445.74051-3.8353.03761-.27451.18975-1.4861.04915-1.782-.28255-.5945-.71179-1.0116-1.0677-1.5175-.18682-.11047-.36233-.2591-.56045-.33143-.54884-.20035-1.6768-.31323-2.1898-.364-1.2563-.12434-2.5184-.16211-3.7904-.09748z"/>
  </g>
  <path d="m92.275 48.894 2.3967 2.3967" stroke-width=".51735"/>
 </g>
</svg>
