<?xml version="1.0" encoding="UTF-8" standalone="no"?>
<svg
   width="210mm"
   height="297mm"
   version="1.1"
   viewBox="0 0 210 297"
   id="svg6"
   sodipodi:docname="Logo.svg"
   inkscape:version="1.4 (e7c3feb1, 2024-10-09)"
   xmlns:inkscape="http://www.inkscape.org/namespaces/inkscape"
   xmlns:sodipodi="http://sodipodi.sourceforge.net/DTD/sodipodi-0.dtd"
   xmlns="http://www.w3.org/2000/svg"
   xmlns:svg="http://www.w3.org/2000/svg">
  <defs
     id="defs6">
    <inkscape:path-effect
       effect="simplify"
       id="path-effect6"
       is_visible="true"
       lpeversion="1.3"
       threshold="7.6"
       steps="12"
       smooth_angles="360"
       helper_size="16"
       simplify_individual_paths="true"
       simplify_just_coalesce="false" />
  </defs>
  <sodipodi:namedview
     id="namedview6"
     pagecolor="#ffffff"
     bordercolor="#000000"
     borderopacity="0.25"
     inkscape:showpageshadow="2"
     inkscape:pageopacity="0.0"
     inkscape:pagecheckerboard="0"
     inkscape:deskcolor="#d1d1d1"
     inkscape:document-units="mm"
     inkscape:zoom="0.5916796"
     inkscape:cx="421.68092"
     inkscape:cy="191.82679"
     inkscape:window-width="1512"
     inkscape:window-height="842"
     inkscape:window-x="0"
     inkscape:window-y="38"
     inkscape:window-maximized="1"
     inkscape:current-layer="svg6"
     inkscape:export-bgcolor="#ffffff00" />
  <g
     transform="matrix(2.8347 0 0 2.848 -96.793 -64.191)"
     fill="#d0d0d0"
     stroke="#e1e1e1"
     id="g3"
     style="stroke:#a4a4a4;stroke-opacity:1">
    <text
       transform="scale(0.26458)"
       stroke-width="3.9121"
       style="white-space:pre;shape-inside:url(#rect27);display:inline;stroke:#a4a4a4;stroke-opacity:1"
       xml:space="preserve"
       id="text1" />
    <g
       transform="translate(10.042,-3.9749)"
       stroke-width="1.0351"
       id="g2"
       style="fill:#d0d0d0;fill-opacity:1;stroke:#a4a4a4;stroke-opacity:1">
      <path
         d="m 55.592,37.871 c 0.2199,-0.67141 0.87783,-2.4398 0.50612,-3.0697 0,0 -0.38578,-0.40909 -0.57868,-0.61364 -0.65352,-0.34441 -1.278,-0.7556 -1.9606,-1.0332 -0.44129,-0.1795 -0.91633,-0.26582 -1.3866,-0.3282 -1.9288,-0.25588 -3.8877,0.0597 -5.6838,0.8219 -0.71404,0.30303 -1.3768,0.72202 -2.0653,1.083 -0.66579,0.52128 -1.371,0.99257 -1.9974,1.5638 -2.7179,2.4786 -4.8575,5.9602 -6.3087,9.3722 -0.30063,0.70683 -0.53366,1.4424 -0.80048,2.1636 -0.41361,1.4992 -0.79981,3.0602 -0.57163,4.6327 0.05844,0.4023 0.25278,1.1116 0.62041,1.3781 0.50626,0.36708 1.0917,0.60036 1.6376,0.90054 0.4351,0.01174 0.87178,0.07538 1.3053,0.03532 3.2603,-0.30191 6.1847,-2.3333 8.6142,-4.4578 0.71037,-0.62122 1.3629,-1.31 2.0443,-1.9651 2.7361,-2.8712 5.0128,-6.154 7.4307,-9.3047 0.58967,-0.73682 1.1164,-1.5256 1.5805,-2.3526 0.13177,-0.23486 0.31261,-0.56725 0.25168,-0.62039 -0.30234,-0.26368 -0.67988,-0.41785 -1.0198,-0.62678 -1.7383,2.0416 -2.6392,4.6853 -3.5488,7.1927 -0.62198,1.9831 -1.2649,3.9636 -1.5174,6.0417 -0.11572,0.95244 -0.16384,1.8996 0.02573,2.846 0.06465,0.32274 0.21003,0.62232 0.31505,0.93348 0.64905,0.9261 0.621228,1.065006 2.0426,1.6145 0.323638,0.125116 0.6918,0.0764 1.0357,0.04175 1.8781,-0.18892 3.4871,-1.1196 5.1285,-1.9969 1.5489,-0.92478 2.9469,-2.0682 4.3113,-3.2539 l -0.89409,-0.57763 c -1.3464,1.1925 -2.70988,2.372005 -4.2775,3.2469 -1.440453,0.803922 -2.132502,1.226194 -3.6785,1.6675 -2.804602,0.800574 -0.24828,-0.02618 -2.4562,0.17639 -0.08875,0.0079 0.219,0.15875 0.219,0.15875 0,0 -0.31082,-0.40778 -0.46623,-0.61169 -0.1111,-0.30447 -0.26382,-0.59601 -0.33328,-0.91345 -0.20354,-0.93024 -0.16308,-1.889 -0.05462,-2.8272 0.23966,-2.074 0.87982,-4.0515 1.4999,-6.0285 0.87992,-2.4026 1.7859,-5.1164 3.5159,-7.0298 -0.26868,-0.19352 -0.50746,-0.44177 -0.80606,-0.58059 -0.05778,-0.02686 -8.7e-5,0.13408 -0.02289,0.19527 -0.05146,0.13843 -0.12668,0.26632 -0.19701,0.39558 -0.45116,0.82922 -0.97715,1.6127 -1.5588,2.3495 -2.3978,3.1575 -4.6567,6.4453 -7.3863,9.3134 -0.67879,0.65287 -1.3276,1.3408 -2.0364,1.9586 -2.3947,2.0872 -5.3885,4.1428 -8.6115,4.3698 -0.43047,0.03036 -0.86149,-0.05168 -1.2922,-0.07741 0.51526,0.62938 -0.19425,-0.23314 -0.23643,-0.31812 -0.1206,-0.24297 -0.19222,-0.51271 -0.23698,-0.78191 -0.25911,-1.5587 0.12165,-3.1162 0.52256,-4.607 0.26217,-0.7202 0.48982,-1.4549 0.78653,-2.1606 1.4419,-3.4294 3.55,-6.8507 6.2868,-9.3279 0.62455,-0.56533 1.328,-1.0299 1.9919,-1.5448 0.68685,-0.35493 1.3484,-0.768 2.0606,-1.0648 1.2536,-0.52239 2.5821,-0.82168 3.9327,-0.87129 1.9587,-0.072 1.3753,0.13586 3.1152,0.45647 0.05168,0.009 0.0954,-0.04548 0.14317,-0.06827 0.19876,0.18474 0.508,0.298201 0.59627,0.55422 0.330611,0.958907 -0.25879,2.3605 -0.48213,3.0033 z"
         id="path1"
         style="fill:#d0d0d0;fill-opacity:1;stroke:#a4a4a4;stroke-opacity:1"
         sodipodi:nodetypes="csccccccscccccccccsccsscsccccsscccccccscccccccscccccccccacc" />
      <path
         d="m60.982 34.07c1.2664-.08901 2.5215-.04927 3.7703.07971.50837.05248 1.6494.17048 2.1913.38941.19642.07933.36512.24454.54768.36681-.17411-.08089-.36974-.42283-.52232-.24268-.15032.17753.07385.50974.07292.77333-.001.30729-.03982.61815-.07872.92585-.16251 1.2854-.45072 2.562-.72064 3.8216-.12911.53544-.2402 1.078-.38729 1.6063-.26341.94652-.90609 2.8269-1.1962 3.7218-.5441 1.6783-1.0742 3.3579-1.5609 5.0642-.10585.41347-.21563.82547-.3175 1.2404-.06961.2832-.13427.56821-.19682.85377-.05116.23343-.13012.64789-.12314.65167 1.1667.63491.88646.70214 1.251-.68014 1.681-5.068 4.1546-9.5785 6.4738-14.141.75642-1.3167 1.6864-3.7248 3.0902-3.2353.13948.04862.25999.16078.39.24118.84584.79648-.11983-.18604-.19552-.25047-.09264-.07886.16759.19204.24413.29906.14843.20752.24824.45693.37017.69364.0168.03893.10602.22813.11058.2957.04296.63593-.21421 2.013-.27989 2.4984-.10335.76098-.20877 1.5217-.31322 2.2825-.40522 2.6086-.978 5.1781-1.5499 7.7429-.28848 1.2937-.57942 2.5422-.9779 3.7878-.04492.10729-.08983.21459-.13475.32188-.01604.01248-.0624.02504-.04814.03741.27015.23359.50621.63999.83606.6439.15837.0019.13916-.42437.21714-.63143.27431-.72871.79364-1.943 1.0511-2.5581 1.7911-3.9199 3.8002-7.6433 5.9388-11.216 1.023-1.5419 1.9707-2.9962 3.402-3.6035.39108-.05278.79548.03274 1.1055.33279-.21372-.2222-.40883-.48218-.64114-.6666-.06864-.05445.10072.1708.13912.26807.21746.5509.2566 1.1527.29954 1.7886.08167 1.784-.32428 3.5368-.66518 5.286-.37276 2.0757-.75618 4.1597-.93804 6.2626-.02813 1.3366-.37326 3.2266.10364 4.3842.83401 1.1609 1.7423 1.7612 2.8752 2.1704.91286.2604 1.8513.38033 2.7906.47129.38188-.15455.60232-.79244.81184-1.2477 0 0-.82235-.87498-.82235-.87498-.18057.40065-.38101 1.0189-.72575 1.1125-.93422-.08543-1.8673-.208-2.771-.48499-.45507-.17298-.87536-.36119-1.2939-.64821-.10349-.07097-.21106-.13225-.3106-.21269-.0857-.06924-.31661-.32827-.24376-.2353.18675.23834.39098.44846.58647.67269-.13161-.24923-.2108-.34654-.25233-.69597-.02384-.20043-.0105-.4114-.01168-.61779-.0056-.99278.01374-1.9916.10724-2.9909.17821-2.0962.55047-4.176.92639-6.2443.34644-1.7623.76043-3.5243.69777-5.3251-.11626-1.8925-.19542-2.0392-1.3648-3.2336-.35506-.24931-.7503-.34606-1.1672-.23554-1.4373.67362-2.3965 2.1239-3.4257 3.7018-2.1368 3.5863-4.1372 7.3283-5.9524 11.236-.40531.94483-.70992 1.6272-1.0729 2.5501-.08842.22488-.32446.46538-.25499.68152.15713.48887.5267.75926.82295 1.0856.08978.09888.21044-.83667.21163-.4389.38835-1.2619.67477-2.5241.96082-3.8291.56378-2.572 1.1392-5.1444 1.5589-7.7546.10827-.75702.21659-1.514.32574-2.2709.10311-.71954.32939-1.7677.336-2.5487.00028-.06544-.082-.29961-.09388-.33626-.13923-.22569-.2172-.50033-.36475-.71941-.47714-.70844-1.0536-1.3085-1.667-1.775-.13783-.06866-.26768-.16951-.41349-.20594-1.4507-.36238-2.3645 2.0031-3.142 3.3936-2.3067 4.5901-4.7838 9.1016-6.5149 14.152-.41213 1.5016-.46847.9019.42883 2.3354.02182.03479.0037-.09842.01147-.14705.02603-.16632.05645-.33199.09023-.49654.17844-.86699.26589-1.167.49781-2.0958.48156-1.7066 1.0052-3.3879 1.5495-5.0642.27896-.85913.95365-2.8188 1.2104-3.7295.14903-.5287.26161-1.0721.39241-1.6081.27588-1.2659.56376-2.5445.74051-3.8353.03761-.27451.18975-1.4861.04915-1.782-.28255-.5945-.71179-1.0116-1.0677-1.5175-.18682-.11047-.36233-.2591-.56045-.33143-.54884-.20035-1.6768-.31323-2.1898-.364-1.2563-.12434-2.5184-.16211-3.7904-.09748z"
         id="path2"
         style="fill:#d0d0d0;fill-opacity:1;stroke:#a4a4a4;stroke-opacity:1" />
    </g>
  </g>
  <g
     stroke="#7f7f7f"
     id="g6"
     transform="translate(-0.71394231)"
     style="stroke:#dfdfdf;stroke-opacity:1;fill:#efefef;fill-opacity:1"
     inkscape:export-filename="g6.png"
     inkscape:export-xdpi="200"
     inkscape:export-ydpi="200">
    <text
       transform="matrix(0.75,0,0,0.75352,-94.793,-63.326)"
       fill="#d0d0d0"
       stroke-width="0.13302"
       style="white-space:pre;shape-inside:url(#rect27);display:inline;fill:#efefef;fill-opacity:1;stroke:#dfdfdf;stroke-opacity:1"
       xml:space="preserve"
       id="text3" />
    <g
       transform="matrix(2.8347,0,0,2.848,-66.327,-74.647)"
       fill="#f1f1f1"
       stroke-width="0.035194"
       id="g5"
       style="stroke:#dfdfdf;stroke-opacity:1;fill:#efefef;fill-opacity:1">
      <path
         d="m 55.592,37.871 c 0.233999,-0.702074 0.488928,-1.404776 0.588156,-2.141358 0.03642,-0.270377 0.06742,-0.557444 -0.03024,-0.816307 -0.07843,-0.207886 -0.244843,-0.363254 -0.404947,-0.509967 -0.07669,-0.07028 -0.133422,-0.1672 -0.225524,-0.215708 -0.678832,-0.357528 -1.319576,-0.795696 -2.041297,-1.064816 -0.55843,-0.208231 -1.15322,-0.29271 -1.743686,-0.344926 -1.64028,-0.145055 -3.30302,0.128716 -4.841767,0.706383 -0.599523,0.22507 -1.166467,0.526156 -1.724667,0.838247 -0.247186,0.138202 -0.521597,0.234374 -0.744883,0.408612 -0.736417,0.574653 -1.511236,1.103146 -2.193329,1.745312 -1.478539,1.39199 -2.733166,3.00904 -3.802338,4.731607 -0.999676,1.610601 -1.888192,3.297762 -2.554625,5.072842 -0.192939,0.513902 -0.410308,1.0207 -0.556288,1.549839 -0.273174,0.990184 -0.535286,1.991891 -0.612921,3.019351 -0.04962,0.656658 -0.04892,1.3273 0.113666,1.968346 0.08124,0.320317 0.186852,0.651853 0.412697,0.897861 0.162247,0.176733 0.375633,0.292376 0.581484,0.409246 0.389088,0.220903 0.744336,0.603836 1.191454,0.616536 0.460244,0.01307 0.920796,0.07438 1.381652,0.02793 1.245235,-0.125517 2.455041,-0.506824 3.583123,-1.041475 1.403661,-0.665261 2.689878,-1.552739 3.899552,-2.522032 0.808179,-0.647581 1.57386,-1.346597 2.309652,-2.075615 0.262248,-0.259833 0.535168,-0.509089 0.789821,-0.776386 1.90251,-1.996974 3.584996,-4.188104 5.235567,-6.39362 0.860903,-1.150351 1.750326,-2.279364 2.599403,-3.438492 0.516684,-0.705356 1.03163,-1.42493 1.384519,-2.225563 0.02511,-0.05697 0.06989,-0.116832 0.05637,-0.177816 -0.01659,-0.07483 -0.09188,-0.108251 -0.147808,-0.149336 -0.276642,-0.203215 -0.663175,-0.780163 -0.884972,-0.519643 -0.802791,0.942949 -1.431079,2.021584 -1.955474,3.139999 -0.616851,1.315603 -1.158895,2.667775 -1.593326,4.052701 -0.513916,1.638319 -1.051109,3.277136 -1.352973,4.970632 -0.173835,0.975234 -0.308587,1.966525 -0.2555,2.958584 0.02341,0.437527 0.0682,0.880102 0.211135,1.296066 0.06885,0.20037 0.09624,0.424424 0.220718,0.595898 0.233571,0.321762 0.423704,0.684274 0.728624,0.945899 0.295191,0.253276 0.657697,0.407015 1.014855,0.549844 0.209638,0.08384 0.421152,0.176078 0.649655,0.193624 0.272329,0.02091 0.544568,-0.0141 0.814338,-0.04667 0.815767,-0.09849 1.608039,-0.341438 2.36414,-0.658886 0.90266,-0.378981 1.772294,-0.832216 2.620394,-1.318778 0.401222,-0.230184 0.786979,-0.486219 1.167123,-0.749304 1.081322,-0.748345 2.209161,-1.472239 3.088669,-2.448524 0.02141,-0.02376 0.08812,-0.05024 0.03128,-0.08696 -0.285023,-0.18414 -0.601165,-0.77754 -0.85507,-0.552421 -1.245836,1.104592 -2.538864,2.165256 -3.952171,3.051444 -0.418215,0.262233 -0.860914,0.481396 -1.294581,0.716243 -0.703431,0.380933 -1.424589,0.736611 -2.187138,0.985671 -0.546401,0.178463 -1.098006,0.343488 -1.658394,0.4706 -0.09016,0.02045 -0.184863,0.07677 -0.273144,0.0484 -0.06536,-0.02101 -0.02121,-0.104925 -0.06148,-0.145245 -0.05302,-0.05308 -0.133498,-0.05223 -0.202935,-0.0594 -0.251629,-0.02598 -0.619269,-0.191279 -0.755247,0.02057 -0.03199,0.04984 0.05926,0.07336 0.09303,0.09297 0.126636,0.07351 0.515419,0.277754 0.384424,0.212335 -0.09538,-0.04763 -0.234368,-0.05052 -0.285568,-0.144037 -0.123963,-0.226413 -0.376229,-0.371757 -0.46623,-0.61169 -0.133376,-0.355564 -0.296461,-0.702548 -0.367044,-1.079735 -0.149662,-0.799769 -0.128188,-1.620448 -0.04665,-2.426631 0.1518,-1.500824 0.522896,-2.969068 0.952885,-4.411682 0.184502,-0.619007 0.350864,-1.244532 0.572806,-1.851102 0.551963,-1.508523 1.079654,-3.032414 1.808222,-4.46755 0.465453,-0.916851 2.54378,-1.959483 1.707678,-2.56225 -0.268427,-0.193516 -0.532725,-0.773514 -0.80606,-0.58059 -0.04882,0.03446 -0.01388,0.0966 -0.01762,0.144001 -0.0093,0.117884 -0.07986,0.21683 -0.13318,0.318274 -0.333833,0.63509 -0.719704,1.241892 -1.141611,1.822296 -0.495729,0.681959 -1.011805,1.348716 -1.514973,2.025174 -1.766423,2.374777 -3.505602,4.77767 -5.478035,6.988584 -0.374845,0.420167 -0.756179,0.834983 -1.158783,1.228926 -0.26259,0.256942 -0.521927,0.517177 -0.78419,0.774443 -0.48003,0.470884 -0.977764,0.923606 -1.49371,1.355291 -1.238921,1.036588 -2.559586,1.98921 -4.004668,2.718341 -1.059274,0.534467 -2.19074,0.941185 -3.366066,1.124911 -0.446653,0.06982 -0.900885,0.106628 -1.353289,0.06548 -0.219687,-0.01998 -0.798819,-0.231679 -0.658976,-0.06098 0.06217,0.07588 0.247022,0.30486 0.186365,0.227764 -0.140924,-0.179117 -0.315924,-0.336901 -0.418746,-0.540583 -0.188788,-0.373975 -0.256483,-0.793862 -0.295784,-1.206561 -0.08247,-0.866024 0.01334,-1.739328 0.188023,-2.5883 0.113748,-0.552824 0.218164,-1.111264 0.406759,-1.643211 0.269042,-0.758855 0.513597,-1.527398 0.831364,-2.267939 0.180409,-0.420436 0.369159,-0.837344 0.565733,-1.250457 0.970096,-2.038728 2.147561,-3.986768 3.582284,-5.733047 0.774946,-0.943227 1.61062,-1.845427 2.566229,-2.607349 0.490151,-0.390805 0.945742,-0.842134 1.502153,-1.130647 0.756805,-0.392421 1.487589,-0.839367 2.282755,-1.154856 1.366268,-0.542077 2.839198,-0.77544 4.307893,-0.79532 0.411584,-0.0056 0.82753,0.02597 1.224032,0.148122 0.294463,0.09072 0.590801,0.175616 0.892016,0.242129 0.140037,0.03092 0.280846,0.1055 0.422321,0.08192 0.04869,-0.0081 0.09112,-0.08366 0.135487,-0.0513 0.04524,0.033 0.08841,0.07034 0.132342,0.105786 0.144052,0.116254 0.29682,0.22727 0.410728,0.374639 0.08644,0.111831 0.135456,0.248259 0.154166,0.388306 0.03347,0.250512 0.0039,0.504213 -0.03758,0.751595 -0.07842,0.467273 -0.217719,0.921581 -0.368173,1.369825 -0.06161,0.183542 -0.357793,0.451892 -0.190182,0.548782 0.315363,0.1823 0.630727,0.3646 0.94609,0.5469 z"
         id="path4"
         style="fill:#efefef;fill-opacity:1;stroke:#dfdfdf;stroke-opacity:1"
         sodipodi:nodetypes="csccccccscccccccccsccsscccccccccccccccscccccccscccccccccscc"
         inkscape:original-d="m 55.592,37.871 c 0.2199,-0.67141 0.87783,-2.4398 0.50612,-3.0697 -0.14395,-0.24393 -0.38578,-0.40909 -0.57868,-0.61364 -0.65352,-0.34441 -1.278,-0.7556 -1.9606,-1.0332 -0.44129,-0.1795 -0.91633,-0.26582 -1.3866,-0.3282 -1.9288,-0.25588 -3.8877,0.0597 -5.6838,0.8219 -0.71404,0.30303 -1.3768,0.72202 -2.0653,1.083 -0.66579,0.52128 -1.371,0.99257 -1.9974,1.5638 -2.7179,2.4786 -4.8575,5.9602 -6.3087,9.3722 -0.30063,0.70683 -0.53366,1.4424 -0.80048,2.1636 -0.41361,1.4992 -0.79981,3.0602 -0.57163,4.6327 0.05844,0.4023 0.25278,1.1116 0.62041,1.3781 0.50626,0.36708 1.0917,0.60036 1.6376,0.90054 0.4351,0.01174 0.87178,0.07538 1.3053,0.03532 3.2603,-0.30191 6.1847,-2.3333 8.6142,-4.4578 0.71037,-0.62122 1.3629,-1.31 2.0443,-1.9651 2.7361,-2.8712 5.0128,-6.154 7.4307,-9.3047 0.58967,-0.73682 1.1164,-1.5256 1.5805,-2.3526 0.13177,-0.23486 0.31261,-0.56725 0.25168,-0.62039 -0.30234,-0.26368 -0.67988,-0.41785 -1.0198,-0.62678 -1.7383,2.0416 -2.6392,4.6853 -3.5488,7.1927 -0.62198,1.9831 -1.2649,3.9636 -1.5174,6.0417 -0.11572,0.95244 -0.16384,1.8996 0.02573,2.846 0.06465,0.32274 0.21003,0.62232 0.31505,0.93348 0.64905,0.9261 0.62123,1.065 2.0426,1.6145 0.32364,0.12511 0.6918,0.0764 1.0357,0.04175 1.8781,-0.18892 3.4871,-1.1196 5.1285,-1.9969 1.5489,-0.92478 2.9469,-2.0682 4.3113,-3.2539 l -0.89409,-0.57763 c -1.3464,1.1925 -2.7306,2.3362 -4.2775,3.2469 -1.4603,0.76763 -2.1325,1.2262 -3.6785,1.6675 -2.8046,0.80058 -0.24828,-0.02618 -2.4562,0.17639 -0.08875,0.0079 1.006596,0.556334 0.219,0.15875 -0.12343,-0.22612 -0.31082,-0.40778 -0.46623,-0.61169 -0.1111,-0.30447 -0.26382,-0.59601 -0.33328,-0.91345 -0.20354,-0.93024 -0.16308,-1.889 -0.05462,-2.8272 0.23966,-2.074 0.87982,-4.0515 1.4999,-6.0285 0.87992,-2.4026 1.7859,-5.1164 3.5159,-7.0298 -0.26868,-0.19352 -0.50746,-0.44177 -0.80606,-0.58059 -0.05778,-0.02686 -8.7e-5,0.13408 -0.02289,0.19527 -0.05146,0.13843 -0.12668,0.26632 -0.19701,0.39558 -0.45116,0.82922 -0.764648,1.295436 -1.5588,2.3495 -2.3978,3.1575 -4.6567,6.4453 -7.3863,9.3134 -0.67879,0.65287 -1.3276,1.3408 -2.0364,1.9586 -2.3947,2.0872 -5.3885,4.1428 -8.6115,4.3698 -0.43047,0.03036 -0.86149,-0.05168 -1.2922,-0.07741 0.51526,0.62938 -0.19425,-0.23314 -0.23643,-0.31812 -0.1206,-0.24297 -0.19222,-0.51271 -0.23698,-0.78191 -0.25911,-1.5587 0.12165,-3.1162 0.52256,-4.607 0.26217,-0.7202 0.48982,-1.4549 0.78653,-2.1606 1.4419,-3.4294 3.55,-6.8507 6.2868,-9.3279 0.62455,-0.56533 1.328,-1.0299 1.9919,-1.5448 0.68685,-0.35493 1.3484,-0.768 2.0606,-1.0648 1.2536,-0.52239 2.5821,-0.82168 3.9327,-0.87129 1.9587,-0.072 1.3753,0.13586 3.1152,0.45647 0.05168,0.009 0.0954,-0.04548 0.14317,-0.06827 0.19876,0.18474 0.44238,0.32822 0.59627,0.55422 0.4035,0.59257 -0.25879,2.3605 -0.48213,3.0033 z"
         inkscape:path-effect="#path-effect6" />
      <path
         d="m 60.982,34.07 c 1.2664,-0.08901 2.5215,-0.04927 3.7703,0.07971 0.50837,0.05248 1.6494,0.17048 2.1913,0.38941 0.19642,0.07933 0.36512,0.24454 0.54768,0.36681 -0.17411,-0.08089 -0.36974,-0.42283 -0.52232,-0.24268 -0.15032,0.17753 0.07385,0.50974 0.07292,0.77333 -0.001,0.30729 -0.03982,0.61815 -0.07872,0.92585 -0.16251,1.2854 -0.45072,2.562 -0.72064,3.8216 -0.12911,0.53544 -0.2402,1.078 -0.38729,1.6063 -0.26341,0.94652 -0.90609,2.8269 -1.1962,3.7218 -0.5441,1.6783 -1.0742,3.3579 -1.5609,5.0642 -0.10585,0.41347 -0.21563,0.82547 -0.3175,1.2404 -0.06961,0.2832 -0.13427,0.56821 -0.19682,0.85377 -0.05116,0.23343 -0.13012,0.64789 -0.12314,0.65167 1.1667,0.63491 0.88646,0.70214 1.251,-0.68014 1.681,-5.068 4.1546,-9.5785 6.4738,-14.141 0.75642,-1.3167 1.6864,-3.7248 3.0902,-3.2353 0.13948,0.04862 0.25999,0.16078 0.39,0.24118 0.84584,0.79648 -0.11983,-0.18604 -0.19552,-0.25047 -0.09264,-0.07886 0.16759,0.19204 0.24413,0.29906 0.14843,0.20752 0.24824,0.45693 0.37017,0.69364 0.0168,0.03893 0.10602,0.22813 0.11058,0.2957 0.04296,0.63593 -0.21421,2.013 -0.27989,2.4984 -0.10335,0.76098 -0.20877,1.5217 -0.31322,2.2825 -0.40522,2.6086 -0.978,5.1781 -1.5499,7.7429 -0.28848,1.2937 -0.57942,2.5422 -0.9779,3.7878 -0.04492,0.10729 -0.08983,0.21459 -0.13475,0.32188 -0.01604,0.01248 -0.0624,0.02504 -0.04814,0.03741 0.27015,0.23359 0.50621,0.63999 0.83606,0.6439 0.15837,0.0019 0.13916,-0.42437 0.21714,-0.63143 0.27431,-0.72871 0.79364,-1.943 1.0511,-2.5581 1.7911,-3.9199 3.8002,-7.6433 5.9388,-11.216 1.023,-1.5419 1.9707,-2.9962 3.402,-3.6035 0.39108,-0.05278 0.79548,0.03274 1.1055,0.33279 -0.21372,-0.2222 -0.40883,-0.48218 -0.64114,-0.6666 -0.06864,-0.05445 0.10072,0.1708 0.13912,0.26807 0.21746,0.5509 0.2566,1.1527 0.29954,1.7886 0.08167,1.784 -0.32428,3.5368 -0.66518,5.286 -0.37276,2.0757 -0.75618,4.1597 -0.93804,6.2626 -0.02813,1.3366 -0.37326,3.2266 0.10364,4.3842 0.83401,1.1609 1.7423,1.7612 2.8752,2.1704 0.91286,0.2604 1.8513,0.38033 2.7906,0.47129 0.38188,-0.15455 0.60232,-0.79244 0.81184,-1.2477 0,0 -0.82235,-0.87498 -0.82235,-0.87498 -0.18057,0.40065 -0.38101,1.0189 -0.72575,1.1125 -0.93422,-0.08543 -1.8673,-0.208 -2.771,-0.48499 -0.45507,-0.17298 -0.87536,-0.36119 -1.2939,-0.64821 -0.10349,-0.07097 -0.21106,-0.13225 -0.3106,-0.21269 -0.0857,-0.06924 -0.31661,-0.32827 -0.24376,-0.2353 0.18675,0.23834 0.39098,0.44846 0.58647,0.67269 -0.13161,-0.24923 -0.2108,-0.34654 -0.25233,-0.69597 -0.02384,-0.20043 -0.0105,-0.4114 -0.01168,-0.61779 -0.0056,-0.99278 0.01374,-1.9916 0.10724,-2.9909 0.17821,-2.0962 0.55047,-4.176 0.92639,-6.2443 0.34644,-1.7623 0.76043,-3.5243 0.69777,-5.3251 -0.11626,-1.8925 -0.19542,-2.0392 -1.3648,-3.2336 -0.35506,-0.24931 -0.7503,-0.34606 -1.1672,-0.23554 -1.4373,0.67362 -2.3965,2.1239 -3.4257,3.7018 -2.1368,3.5863 -4.1372,7.3283 -5.9524,11.236 -0.40531,0.94483 -0.70992,1.6272 -1.0729,2.5501 -0.08842,0.22488 -0.32446,0.46538 -0.25499,0.68152 0.15713,0.48887 0.5267,0.75926 0.82295,1.0856 0.08978,0.09888 0.21044,-0.83667 0.21163,-0.4389 0.38835,-1.2619 0.67477,-2.5241 0.96082,-3.8291 0.56378,-2.572 1.1392,-5.1444 1.5589,-7.7546 0.10827,-0.75702 0.21659,-1.514 0.32574,-2.2709 0.10311,-0.71954 0.32939,-1.7677 0.336,-2.5487 2.8e-4,-0.06544 -0.082,-0.29961 -0.09388,-0.33626 -0.13923,-0.22569 -0.2172,-0.50033 -0.36475,-0.71941 -0.47714,-0.70844 -1.0536,-1.3085 -1.667,-1.775 -0.13783,-0.06866 -0.26768,-0.16951 -0.41349,-0.20594 -1.4507,-0.36238 -2.3645,2.0031 -3.142,3.3936 -2.3067,4.5901 -4.7838,9.1016 -6.5149,14.152 -0.41213,1.5016 -0.46847,0.9019 0.42883,2.3354 0.02182,0.03479 0.0037,-0.09842 0.01147,-0.14705 0.02603,-0.16632 0.05645,-0.33199 0.09023,-0.49654 0.17844,-0.86699 0.26589,-1.167 0.49781,-2.0958 0.48156,-1.7066 1.0052,-3.3879 1.5495,-5.0642 0.27896,-0.85913 0.95365,-2.8188 1.2104,-3.7295 0.14903,-0.5287 0.26161,-1.0721 0.39241,-1.6081 0.27588,-1.2659 0.56376,-2.5445 0.74051,-3.8353 0.03761,-0.27451 0.18975,-1.4861 0.04915,-1.782 -0.28255,-0.5945 -0.71179,-1.0116 -1.0677,-1.5175 -0.18682,-0.11047 -0.36233,-0.2591 -0.56045,-0.33143 -0.54884,-0.20035 -1.6768,-0.31323 -2.1898,-0.364 -1.2563,-0.12434 -2.5184,-0.16211 -3.7904,-0.09748 z"
         id="path5"
         style="fill:#efefef;fill-opacity:1;stroke:#dfdfdf;stroke-opacity:1" />
    </g>
  </g>
</svg>
