<?xml version="1.0" encoding="UTF-8" standalone="no"?>
<svg
   width="210mm"
   height="297mm"
   version="1.1"
   viewBox="0 0 210 297"
   id="svg6"
   sodipodi:docname="Logo-black.svg"
   inkscape:version="1.3.2 (091e20e, 2023-11-25)"
   xmlns:inkscape="http://www.inkscape.org/namespaces/inkscape"
   xmlns:sodipodi="http://sodipodi.sourceforge.net/DTD/sodipodi-0.dtd"
   xmlns="http://www.w3.org/2000/svg"
   xmlns:svg="http://www.w3.org/2000/svg">
  <defs
     id="defs6" />
  <sodipodi:namedview
     id="namedview6"
     pagecolor="#ffffff"
     bordercolor="#000000"
     borderopacity="0.25"
     inkscape:showpageshadow="2"
     inkscape:pageopacity="0.0"
     inkscape:pagecheckerboard="0"
     inkscape:deskcolor="#d1d1d1"
     inkscape:document-units="mm"
     inkscape:zoom="0.5946522"
     inkscape:cx="461.61437"
     inkscape:cy="510.38237"
     inkscape:window-width="1440"
     inkscape:window-height="776"
     inkscape:window-x="0"
     inkscape:window-y="25"
     inkscape:window-maximized="0"
     inkscape:current-layer="svg6" />
  <g
     transform="matrix(3.6352023,-0.12713884,0.13754741,3.9801062,-159.8033,-16.319481)"
     fill="#d0d0d0"
     stroke="#e1e1e1"
     id="g3"
     style="fill:#fefefe;fill-opacity:1;stroke:#c7c7c7;stroke-opacity:1">
    <text
       transform="scale(0.26458)"
       stroke-width="3.9121"
       style="white-space:pre;shape-inside:url(#rect27);display:inline;fill:#fefefe;fill-opacity:1;stroke:#c7c7c7;stroke-opacity:1"
       xml:space="preserve"
       id="text1" />
    <g
       transform="translate(10.042,-3.9749)"
       stroke-width="1.0351"
       id="g2"
       style="fill:#fefefe;fill-opacity:1;stroke:#c7c7c7;stroke-opacity:1">
      <path
         d="m 55.592,37.871 c 0.2199,-0.67141 0.87783,-2.4398 0.50612,-3.0697 -0.14395,-0.24393 -0.38578,-0.40909 -0.57868,-0.61364 -0.65352,-0.34441 -1.278,-0.7556 -1.9606,-1.0332 -0.44129,-0.1795 -0.91633,-0.26582 -1.3866,-0.3282 -1.9288,-0.25588 -3.8877,0.0597 -5.6838,0.8219 -0.71404,0.30303 -1.3768,0.72202 -2.0653,1.083 -0.66579,0.52128 -1.371,0.99257 -1.9974,1.5638 -2.7179,2.4786 -4.8575,5.9602 -6.3087,9.3722 -0.30063,0.70683 -0.53366,1.4424 -0.80048,2.1636 -0.41361,1.4992 -0.79981,3.0602 -0.57163,4.6327 0.05844,0.4023 0.25278,1.1116 0.62041,1.3781 0.50626,0.36708 1.0917,0.60036 1.6376,0.90054 0.4351,0.01174 0.87178,0.07538 1.3053,0.03532 3.2603,-0.30191 6.1847,-2.3333 8.6142,-4.4578 0.71037,-0.62122 1.3629,-1.31 2.0443,-1.9651 2.7361,-2.8712 5.0128,-6.154 7.4307,-9.3047 0.58967,-0.73682 1.1164,-1.5256 1.5805,-2.3526 0.13177,-0.23486 0.31261,-0.56725 0.25168,-0.62039 -0.30234,-0.26368 -0.67988,-0.41785 -1.0198,-0.62678 -1.7383,2.0416 -2.6392,4.6853 -3.5488,7.1927 -0.62198,1.9831 -1.2649,3.9636 -1.5174,6.0417 -0.11572,0.95244 -0.16384,1.8996 0.02573,2.846 0.06465,0.32274 0.21003,0.62232 0.31505,0.93348 0.64905,0.9261 0.62123,1.065 2.0426,1.6145 0.32364,0.12511 0.6918,0.0764 1.0357,0.04175 1.8781,-0.18892 3.4871,-1.1196 5.1285,-1.9969 1.5489,-0.92478 2.9469,-2.0682 4.3113,-3.2539 l -0.89409,-0.57763 c -1.3464,1.1925 -2.7306,2.3362 -4.2775,3.2469 -1.4603,0.76763 -2.1325,1.2262 -3.6785,1.6675 -2.8046,0.80058 -0.24828,-0.02618 -2.4562,0.17639 -0.08875,0.0079 0.26284,0.23907 0.219,0.15875 -0.12343,-0.22612 -0.31082,-0.40778 -0.46623,-0.61169 -0.1111,-0.30447 -0.26382,-0.59601 -0.33328,-0.91345 -0.20354,-0.93024 -0.16308,-1.889 -0.05462,-2.8272 0.23966,-2.074 0.87982,-4.0515 1.4999,-6.0285 0.87992,-2.4026 1.7859,-5.1164 3.5159,-7.0298 -0.26868,-0.19352 -0.50746,-0.44177 -0.80606,-0.58059 -0.05778,-0.02686 -8.7e-5,0.13408 -0.02289,0.19527 -0.05146,0.13843 -0.12668,0.26632 -0.19701,0.39558 -0.45116,0.82922 -0.97715,1.6127 -1.5588,2.3495 -2.3978,3.1575 -4.6567,6.4453 -7.3863,9.3134 -0.67879,0.65287 -1.3276,1.3408 -2.0364,1.9586 -2.3947,2.0872 -5.3885,4.1428 -8.6115,4.3698 -0.43047,0.03036 -0.86149,-0.05168 -1.2922,-0.07741 0.51526,0.62938 -0.19425,-0.23314 -0.23643,-0.31812 -0.1206,-0.24297 -0.19222,-0.51271 -0.23698,-0.78191 -0.25911,-1.5587 0.12165,-3.1162 0.52256,-4.607 0.26217,-0.7202 0.48982,-1.4549 0.78653,-2.1606 1.4419,-3.4294 3.55,-6.8507 6.2868,-9.3279 0.62455,-0.56533 1.328,-1.0299 1.9919,-1.5448 0.68685,-0.35493 1.3484,-0.768 2.0606,-1.0648 1.2536,-0.52239 2.5821,-0.82168 3.9327,-0.87129 1.9587,-0.072 1.3753,0.13586 3.1152,0.45647 0.05168,0.009 0.0954,-0.04548 0.14317,-0.06827 0.19876,0.18474 0.44238,0.32822 0.59627,0.55422 0.4035,0.59257 -0.25879,2.3605 -0.48213,3.0033 z"
         id="path1"
         style="fill:#fefefe;fill-opacity:1;stroke:#c7c7c7;stroke-opacity:1" />
      <path
         d="m 60.982,34.07 c 1.2664,-0.08901 2.5215,-0.04927 3.7703,0.07971 0.50837,0.05248 1.6494,0.17048 2.1913,0.38941 0.19642,0.07933 0.36512,0.24454 0.54768,0.36681 -0.17411,-0.08089 -0.36974,-0.42283 -0.52232,-0.24268 -0.15032,0.17753 0.07385,0.50974 0.07292,0.77333 -0.001,0.30729 -0.03982,0.61815 -0.07872,0.92585 -0.16251,1.2854 -0.45072,2.562 -0.72064,3.8216 -0.12911,0.53544 -0.2402,1.078 -0.38729,1.6063 -0.26341,0.94652 -0.90609,2.8269 -1.1962,3.7218 -0.5441,1.6783 -1.0742,3.3579 -1.5609,5.0642 -0.10585,0.41347 -0.21563,0.82547 -0.3175,1.2404 -0.06961,0.2832 -0.13427,0.56821 -0.19682,0.85377 -0.05116,0.23343 -0.13012,0.64789 -0.12314,0.65167 1.1667,0.63491 0.88646,0.70214 1.251,-0.68014 1.681,-5.068 4.1546,-9.5785 6.4738,-14.141 0.75642,-1.3167 1.6864,-3.7248 3.0902,-3.2353 0.13948,0.04862 0.25999,0.16078 0.39,0.24118 0.84584,0.79648 -0.11983,-0.18604 -0.19552,-0.25047 -0.09264,-0.07886 0.16759,0.19204 0.24413,0.29906 0.14843,0.20752 0.24824,0.45693 0.37017,0.69364 0.0168,0.03893 0.10602,0.22813 0.11058,0.2957 0.04296,0.63593 -0.21421,2.013 -0.27989,2.4984 -0.10335,0.76098 -0.20877,1.5217 -0.31322,2.2825 -0.40522,2.6086 -0.978,5.1781 -1.5499,7.7429 -0.28848,1.2937 -0.57942,2.5422 -0.9779,3.7878 -0.04492,0.10729 -0.08983,0.21459 -0.13475,0.32188 -0.01604,0.01248 -0.0624,0.02504 -0.04814,0.03741 0.27015,0.23359 0.50621,0.63999 0.83606,0.6439 0.15837,0.0019 0.13916,-0.42437 0.21714,-0.63143 0.27431,-0.72871 0.79364,-1.943 1.0511,-2.5581 1.7911,-3.9199 3.8002,-7.6433 5.9388,-11.216 1.023,-1.5419 1.9707,-2.9962 3.402,-3.6035 0.39108,-0.05278 0.79548,0.03274 1.1055,0.33279 -0.21372,-0.2222 -0.40883,-0.48218 -0.64114,-0.6666 -0.06864,-0.05445 0.10072,0.1708 0.13912,0.26807 0.21746,0.5509 0.2566,1.1527 0.29954,1.7886 0.08167,1.784 -0.32428,3.5368 -0.66518,5.286 -0.37276,2.0757 -0.75618,4.1597 -0.93804,6.2626 -0.02813,1.3366 -0.37326,3.2266 0.10364,4.3842 0.83401,1.1609 1.7423,1.7612 2.8752,2.1704 0.91286,0.2604 1.8513,0.38033 2.7906,0.47129 0.38188,-0.15455 0.60232,-0.79244 0.81184,-1.2477 0,0 -0.82235,-0.87498 -0.82235,-0.87498 -0.18057,0.40065 -0.38101,1.0189 -0.72575,1.1125 -0.93422,-0.08543 -1.8673,-0.208 -2.771,-0.48499 -0.45507,-0.17298 -0.87536,-0.36119 -1.2939,-0.64821 -0.10349,-0.07097 -0.21106,-0.13225 -0.3106,-0.21269 -0.0857,-0.06924 -0.31661,-0.32827 -0.24376,-0.2353 0.18675,0.23834 0.39098,0.44846 0.58647,0.67269 -0.13161,-0.24923 -0.2108,-0.34654 -0.25233,-0.69597 -0.02384,-0.20043 -0.0105,-0.4114 -0.01168,-0.61779 -0.0056,-0.99278 0.01374,-1.9916 0.10724,-2.9909 0.17821,-2.0962 0.55047,-4.176 0.92639,-6.2443 0.34644,-1.7623 0.76043,-3.5243 0.69777,-5.3251 -0.11626,-1.8925 -0.19542,-2.0392 -1.3648,-3.2336 -0.35506,-0.24931 -0.7503,-0.34606 -1.1672,-0.23554 -1.4373,0.67362 -2.3965,2.1239 -3.4257,3.7018 -2.1368,3.5863 -4.1372,7.3283 -5.9524,11.236 -0.40531,0.94483 -0.70992,1.6272 -1.0729,2.5501 -0.08842,0.22488 -0.32446,0.46538 -0.25499,0.68152 0.15713,0.48887 0.5267,0.75926 0.82295,1.0856 0.08978,0.09888 0.21044,-0.83667 0.21163,-0.4389 0.38835,-1.2619 0.67477,-2.5241 0.96082,-3.8291 0.56378,-2.572 1.1392,-5.1444 1.5589,-7.7546 0.10827,-0.75702 0.21659,-1.514 0.32574,-2.2709 0.10311,-0.71954 0.32939,-1.7677 0.336,-2.5487 2.8e-4,-0.06544 -0.082,-0.29961 -0.09388,-0.33626 -0.13923,-0.22569 -0.2172,-0.50033 -0.36475,-0.71941 -0.47714,-0.70844 -1.0536,-1.3085 -1.667,-1.775 -0.13783,-0.06866 -0.26768,-0.16951 -0.41349,-0.20594 -1.4507,-0.36238 -2.3645,2.0031 -3.142,3.3936 -2.3067,4.5901 -4.7838,9.1016 -6.5149,14.152 -0.41213,1.5016 -0.46847,0.9019 0.42883,2.3354 0.02182,0.03479 0.0037,-0.09842 0.01147,-0.14705 0.02603,-0.16632 0.05645,-0.33199 0.09023,-0.49654 0.17844,-0.86699 0.26589,-1.167 0.49781,-2.0958 0.48156,-1.7066 1.0052,-3.3879 1.5495,-5.0642 0.27896,-0.85913 0.95365,-2.8188 1.2104,-3.7295 0.14903,-0.5287 0.26161,-1.0721 0.39241,-1.6081 0.27588,-1.2659 0.56376,-2.5445 0.74051,-3.8353 0.03761,-0.27451 0.18975,-1.4861 0.04915,-1.782 -0.28255,-0.5945 -0.71179,-1.0116 -1.0677,-1.5175 -0.18682,-0.11047 -0.36233,-0.2591 -0.56045,-0.33143 -0.54884,-0.20035 -1.6768,-0.31323 -2.1898,-0.364 -1.2563,-0.12434 -2.5184,-0.16211 -3.7904,-0.09748 z"
         id="path2"
         style="fill:#fefefe;fill-opacity:1;stroke:#c7c7c7;stroke-opacity:1" />
    </g>
    <path
       d="m 92.275,48.894 2.3967,2.3967"
       stroke-width="1.0351"
       id="path3"
       style="fill:#fefefe;fill-opacity:1;stroke:#c7c7c7;stroke-opacity:1" />
  </g>
  <g
     stroke="#7f7f7f"
     id="g6"
     style="fill:#fafafa;fill-opacity:1;stroke:#c7c7c7;stroke-opacity:1"
     transform="matrix(1.2823939,-0.0448509,0.04829615,1.3975093,-33.466238,69.046787)">
    <text
       transform="matrix(0.75,0,0,0.75352,-94.793,-63.326)"
       fill="#d0d0d0"
       stroke-width="0.13302"
       style="white-space:pre;shape-inside:url(#rect27);display:inline;fill:#fafafa;fill-opacity:1;stroke:#c7c7c7;stroke-opacity:1"
       xml:space="preserve"
       id="text3" />
    <g
       transform="matrix(2.8347,0,0,2.848,-66.327,-74.647)"
       fill="#f1f1f1"
       stroke-width="0.035194"
       id="g5"
       style="fill:#fafafa;fill-opacity:1;stroke:#c7c7c7;stroke-opacity:1">
      <path
         d="m 55.592,37.871 c 0.2199,-0.67141 0.87783,-2.4398 0.50612,-3.0697 -0.14395,-0.24393 -0.38578,-0.40909 -0.57868,-0.61364 -0.65352,-0.34441 -1.278,-0.7556 -1.9606,-1.0332 -0.44129,-0.1795 -0.91633,-0.26582 -1.3866,-0.3282 -1.9288,-0.25588 -3.8877,0.0597 -5.6838,0.8219 -0.71404,0.30303 -1.3768,0.72202 -2.0653,1.083 -0.66579,0.52128 -1.371,0.99257 -1.9974,1.5638 -2.7179,2.4786 -4.8575,5.9602 -6.3087,9.3722 -0.30063,0.70683 -0.53366,1.4424 -0.80048,2.1636 -0.41361,1.4992 -0.79981,3.0602 -0.57163,4.6327 0.05844,0.4023 0.25278,1.1116 0.62041,1.3781 0.50626,0.36708 1.0917,0.60036 1.6376,0.90054 0.4351,0.01174 0.87178,0.07538 1.3053,0.03532 3.2603,-0.30191 6.1847,-2.3333 8.6142,-4.4578 0.71037,-0.62122 1.3629,-1.31 2.0443,-1.9651 2.7361,-2.8712 5.0128,-6.154 7.4307,-9.3047 0.58967,-0.73682 1.1164,-1.5256 1.5805,-2.3526 0.13177,-0.23486 0.31261,-0.56725 0.25168,-0.62039 -0.30234,-0.26368 -0.67988,-0.41785 -1.0198,-0.62678 -1.7383,2.0416 -2.6392,4.6853 -3.5488,7.1927 -0.62198,1.9831 -1.2649,3.9636 -1.5174,6.0417 -0.11572,0.95244 -0.16384,1.8996 0.02573,2.846 0.06465,0.32274 0.21003,0.62232 0.31505,0.93348 0.64905,0.9261 0.62123,1.065 2.0426,1.6145 0.32364,0.12511 0.6918,0.0764 1.0357,0.04175 1.8781,-0.18892 3.4871,-1.1196 5.1285,-1.9969 1.5489,-0.92478 2.9469,-2.0682 4.3113,-3.2539 l -0.89409,-0.57763 c -1.3464,1.1925 -2.7306,2.3362 -4.2775,3.2469 -1.4603,0.76763 -2.1325,1.2262 -3.6785,1.6675 -2.8046,0.80058 -0.24828,-0.02618 -2.4562,0.17639 -0.08875,0.0079 0.26284,0.23907 0.219,0.15875 -0.12343,-0.22612 -0.31082,-0.40778 -0.46623,-0.61169 -0.1111,-0.30447 -0.26382,-0.59601 -0.33328,-0.91345 -0.20354,-0.93024 -0.16308,-1.889 -0.05462,-2.8272 0.23966,-2.074 0.87982,-4.0515 1.4999,-6.0285 0.87992,-2.4026 1.7859,-5.1164 3.5159,-7.0298 -0.26868,-0.19352 -0.50746,-0.44177 -0.80606,-0.58059 -0.05778,-0.02686 -8.7e-5,0.13408 -0.02289,0.19527 -0.05146,0.13843 -0.12668,0.26632 -0.19701,0.39558 -0.45116,0.82922 -0.97715,1.6127 -1.5588,2.3495 -2.3978,3.1575 -4.6567,6.4453 -7.3863,9.3134 -0.67879,0.65287 -1.3276,1.3408 -2.0364,1.9586 -2.3947,2.0872 -5.3885,4.1428 -8.6115,4.3698 -0.43047,0.03036 -0.86149,-0.05168 -1.2922,-0.07741 0.51526,0.62938 -0.19425,-0.23314 -0.23643,-0.31812 -0.1206,-0.24297 -0.19222,-0.51271 -0.23698,-0.78191 -0.25911,-1.5587 0.12165,-3.1162 0.52256,-4.607 0.26217,-0.7202 0.48982,-1.4549 0.78653,-2.1606 1.4419,-3.4294 3.55,-6.8507 6.2868,-9.3279 0.62455,-0.56533 1.328,-1.0299 1.9919,-1.5448 0.68685,-0.35493 1.3484,-0.768 2.0606,-1.0648 1.2536,-0.52239 2.5821,-0.82168 3.9327,-0.87129 1.9587,-0.072 1.3753,0.13586 3.1152,0.45647 0.05168,0.009 0.0954,-0.04548 0.14317,-0.06827 0.19876,0.18474 0.44238,0.32822 0.59627,0.55422 0.4035,0.59257 -0.25879,2.3605 -0.48213,3.0033 z"
         id="path4"
         style="fill:#fafafa;fill-opacity:1;stroke:#c7c7c7;stroke-opacity:1" />
      <path
         d="m 60.982,34.07 c 1.2664,-0.08901 2.5215,-0.04927 3.7703,0.07971 0.50837,0.05248 1.6494,0.17048 2.1913,0.38941 0.19642,0.07933 0.36512,0.24454 0.54768,0.36681 -0.17411,-0.08089 -0.36974,-0.42283 -0.52232,-0.24268 -0.15032,0.17753 0.07385,0.50974 0.07292,0.77333 -0.001,0.30729 -0.03982,0.61815 -0.07872,0.92585 -0.16251,1.2854 -0.45072,2.562 -0.72064,3.8216 -0.12911,0.53544 -0.2402,1.078 -0.38729,1.6063 -0.26341,0.94652 -0.90609,2.8269 -1.1962,3.7218 -0.5441,1.6783 -1.0742,3.3579 -1.5609,5.0642 -0.10585,0.41347 -0.21563,0.82547 -0.3175,1.2404 -0.06961,0.2832 -0.13427,0.56821 -0.19682,0.85377 -0.05116,0.23343 -0.13012,0.64789 -0.12314,0.65167 1.1667,0.63491 0.88646,0.70214 1.251,-0.68014 1.681,-5.068 4.1546,-9.5785 6.4738,-14.141 0.75642,-1.3167 1.6864,-3.7248 3.0902,-3.2353 0.13948,0.04862 0.25999,0.16078 0.39,0.24118 0.84584,0.79648 -0.11983,-0.18604 -0.19552,-0.25047 -0.09264,-0.07886 0.16759,0.19204 0.24413,0.29906 0.14843,0.20752 0.24824,0.45693 0.37017,0.69364 0.0168,0.03893 0.10602,0.22813 0.11058,0.2957 0.04296,0.63593 -0.21421,2.013 -0.27989,2.4984 -0.10335,0.76098 -0.20877,1.5217 -0.31322,2.2825 -0.40522,2.6086 -0.978,5.1781 -1.5499,7.7429 -0.28848,1.2937 -0.57942,2.5422 -0.9779,3.7878 -0.04492,0.10729 -0.08983,0.21459 -0.13475,0.32188 -0.01604,0.01248 -0.0624,0.02504 -0.04814,0.03741 0.27015,0.23359 0.50621,0.63999 0.83606,0.6439 0.15837,0.0019 0.13916,-0.42437 0.21714,-0.63143 0.27431,-0.72871 0.79364,-1.943 1.0511,-2.5581 1.7911,-3.9199 3.8002,-7.6433 5.9388,-11.216 1.023,-1.5419 1.9707,-2.9962 3.402,-3.6035 0.39108,-0.05278 0.79548,0.03274 1.1055,0.33279 -0.21372,-0.2222 -0.40883,-0.48218 -0.64114,-0.6666 -0.06864,-0.05445 0.10072,0.1708 0.13912,0.26807 0.21746,0.5509 0.2566,1.1527 0.29954,1.7886 0.08167,1.784 -0.32428,3.5368 -0.66518,5.286 -0.37276,2.0757 -0.75618,4.1597 -0.93804,6.2626 -0.02813,1.3366 -0.37326,3.2266 0.10364,4.3842 0.83401,1.1609 1.7423,1.7612 2.8752,2.1704 0.91286,0.2604 1.8513,0.38033 2.7906,0.47129 0.38188,-0.15455 0.60232,-0.79244 0.81184,-1.2477 0,0 -0.82235,-0.87498 -0.82235,-0.87498 -0.18057,0.40065 -0.38101,1.0189 -0.72575,1.1125 -0.93422,-0.08543 -1.8673,-0.208 -2.771,-0.48499 -0.45507,-0.17298 -0.87536,-0.36119 -1.2939,-0.64821 -0.10349,-0.07097 -0.21106,-0.13225 -0.3106,-0.21269 -0.0857,-0.06924 -0.31661,-0.32827 -0.24376,-0.2353 0.18675,0.23834 0.39098,0.44846 0.58647,0.67269 -0.13161,-0.24923 -0.2108,-0.34654 -0.25233,-0.69597 -0.02384,-0.20043 -0.0105,-0.4114 -0.01168,-0.61779 -0.0056,-0.99278 0.01374,-1.9916 0.10724,-2.9909 0.17821,-2.0962 0.55047,-4.176 0.92639,-6.2443 0.34644,-1.7623 0.76043,-3.5243 0.69777,-5.3251 -0.11626,-1.8925 -0.19542,-2.0392 -1.3648,-3.2336 -0.35506,-0.24931 -0.7503,-0.34606 -1.1672,-0.23554 -1.4373,0.67362 -2.3965,2.1239 -3.4257,3.7018 -2.1368,3.5863 -4.1372,7.3283 -5.9524,11.236 -0.40531,0.94483 -0.70992,1.6272 -1.0729,2.5501 -0.08842,0.22488 -0.32446,0.46538 -0.25499,0.68152 0.15713,0.48887 0.5267,0.75926 0.82295,1.0856 0.08978,0.09888 0.21044,-0.83667 0.21163,-0.4389 0.38835,-1.2619 0.67477,-2.5241 0.96082,-3.8291 0.56378,-2.572 1.1392,-5.1444 1.5589,-7.7546 0.10827,-0.75702 0.21659,-1.514 0.32574,-2.2709 0.10311,-0.71954 0.32939,-1.7677 0.336,-2.5487 2.8e-4,-0.06544 -0.082,-0.29961 -0.09388,-0.33626 -0.13923,-0.22569 -0.2172,-0.50033 -0.36475,-0.71941 -0.47714,-0.70844 -1.0536,-1.3085 -1.667,-1.775 -0.13783,-0.06866 -0.26768,-0.16951 -0.41349,-0.20594 -1.4507,-0.36238 -2.3645,2.0031 -3.142,3.3936 -2.3067,4.5901 -4.7838,9.1016 -6.5149,14.152 -0.41213,1.5016 -0.46847,0.9019 0.42883,2.3354 0.02182,0.03479 0.0037,-0.09842 0.01147,-0.14705 0.02603,-0.16632 0.05645,-0.33199 0.09023,-0.49654 0.17844,-0.86699 0.26589,-1.167 0.49781,-2.0958 0.48156,-1.7066 1.0052,-3.3879 1.5495,-5.0642 0.27896,-0.85913 0.95365,-2.8188 1.2104,-3.7295 0.14903,-0.5287 0.26161,-1.0721 0.39241,-1.6081 0.27588,-1.2659 0.56376,-2.5445 0.74051,-3.8353 0.03761,-0.27451 0.18975,-1.4861 0.04915,-1.782 -0.28255,-0.5945 -0.71179,-1.0116 -1.0677,-1.5175 -0.18682,-0.11047 -0.36233,-0.2591 -0.56045,-0.33143 -0.54884,-0.20035 -1.6768,-0.31323 -2.1898,-0.364 -1.2563,-0.12434 -2.5184,-0.16211 -3.7904,-0.09748 z"
         id="path5"
         style="fill:#fafafa;fill-opacity:1;stroke:#c7c7c7;stroke-opacity:1" />
    </g>
    <path
       d="m 166.78,75.924 6.7939,6.8258"
       fill="#d0d0d0"
       stroke-width="0.099998"
       id="path6"
       style="fill:#fafafa;fill-opacity:1;stroke:#c7c7c7;stroke-opacity:1" />
  </g>
</svg>
