<?xml version="1.0" encoding="UTF-8" standalone="no"?>
<svg
   width="210mm"
   height="297mm"
   version="1.1"
   viewBox="0 0 210 297"
   id="svg3"
   sodipodi:docname="Name.svg"
   inkscape:version="1.3.2 (091e20e, 2023-11-25)"
   xmlns:inkscape="http://www.inkscape.org/namespaces/inkscape"
   xmlns:sodipodi="http://sodipodi.sourceforge.net/DTD/sodipodi-0.dtd"
   xmlns="http://www.w3.org/2000/svg"
   xmlns:svg="http://www.w3.org/2000/svg">
  <defs
     id="defs3">
    <rect
       x="474.98608"
       y="595.21693"
       width="5.9373259"
       height="56.404596"
       id="rect6" />
    <rect
       x="575.92062"
       y="179.60411"
       width="4.4529945"
       height="51.951602"
       id="rect5" />
    <rect
       x="443.81511"
       y="127.65251"
       width="94.997215"
       height="455.68977"
       id="rect3" />
    <rect
       x="492.79805"
       y="100.93454"
       width="114.29352"
       height="504.67271"
       id="rect2" />
  </defs>
  <sodipodi:namedview
     id="namedview3"
     pagecolor="#ffffff"
     bordercolor="#000000"
     borderopacity="0.25"
     inkscape:showpageshadow="2"
     inkscape:pageopacity="0.0"
     inkscape:pagecheckerboard="0"
     inkscape:deskcolor="#d1d1d1"
     inkscape:document-units="mm"
     inkscape:zoom="1.0820232"
     inkscape:rotation="-90"
     inkscape:cx="355.81491"
     inkscape:cy="445.46178"
     inkscape:window-width="1440"
     inkscape:window-height="765"
     inkscape:window-x="0"
     inkscape:window-y="25"
     inkscape:window-maximized="0"
     inkscape:current-layer="svg3" />
  <text
     transform="matrix(0,0.49637875,-0.48656884,0,239.75778,-41.22752)"
     stroke-width="1.9553"
     style="white-space:pre;shape-inside:url(#rect27);display:inline;fill:#d0d0d0;stroke:#d1d1d1"
     xml:space="preserve"
     id="text82" />
  <path
     d="m 177.02932,72.482975 c 1.23474,0.412554 4.48685,1.646897 5.64525,0.949532 0.44859,-0.270065 0.75233,-0.723762 1.1285,-1.085662 0.63338,-1.22607 1.38957,-2.397657 1.90008,-3.678283 0.3301,-0.827905 0.48885,-1.719128 0.60357,-2.601402 0.47057,-3.618623 -0.10979,-7.293717 -1.5115,-10.663382 -0.55728,-1.339611 -1.32781,-2.583015 -1.99166,-3.874711 -0.95865,-1.249089 -1.82536,-2.572134 -2.87586,-3.747323 -4.55821,-5.099055 -10.96095,-9.11316 -17.2357,-11.835757 -1.29988,-0.564013 -2.65261,-1.0012 -3.97891,-1.501782 -2.75707,-0.775974 -5.62778,-1.500524 -8.51965,-1.072435 -0.73983,0.109639 -2.04425,0.474241 -2.53435,1.163952 -0.67507,0.949794 -1.10408,2.048139 -1.65612,3.072302 -0.0216,0.816292 -0.13862,1.635547 -0.065,2.448875 0.55522,6.116651 4.29099,11.60312 8.198,16.161107 1.14243,1.332726 2.40912,2.556938 3.61386,3.835313 5.28021,5.133199 11.31735,9.404518 17.11156,13.940742 1.35503,1.106281 2.80562,2.094479 4.32649,2.965178 0.43191,0.247213 1.04319,0.586487 1.14091,0.472177 0.48492,-0.567221 0.76844,-1.275524 1.15266,-1.913248 -3.75455,-3.261226 -8.61637,-4.951405 -13.22754,-6.657906 -3.64697,-1.166898 -7.28915,-2.37308 -11.11083,-2.846796 -1.75156,-0.217102 -3.49341,-0.30738 -5.23386,0.04827 -0.59352,0.12129 -1.14446,0.394038 -1.71669,0.591066 -1.70312,1.217683 -1.95856,1.16549 -2.9691,3.832123 -0.23008,0.607182 -0.14051,1.297887 -0.0768,1.943078 0.34743,3.523505 2.05897,6.542151 3.67234,9.621583 1.7007,2.905892 3.80347,5.528681 5.984,8.088433 l 1.06228,-1.677403 c -2.19304,-2.525982 -4.29633,-5.122881 -5.97113,-8.025021 -1.41169,-2.73967 -2.25501,-4.000785 -3.06657,-6.901237 -1.47229,-5.261712 0.0481,-0.465798 -0.32439,-4.608078 -0.0145,-0.166504 -0.43965,0.493114 -0.29194,0.410866 0.41584,-0.231568 0.74992,-0.58313 1.12491,-0.874695 0.55993,-0.208435 1.09608,-0.494953 1.67986,-0.625267 1.71073,-0.381861 3.47391,-0.305954 5.19929,-0.102472 3.81413,0.449626 7.4508,1.650631 11.08655,2.813963 4.41844,1.650819 9.40918,3.350529 12.92797,6.596183 0.35588,-0.504071 0.81242,-0.952046 1.06771,-1.51225 0.0494,-0.108401 -0.24657,-1.63e-4 -0.3591,-0.04294 -0.25458,-0.09654 -0.48977,-0.237664 -0.72748,-0.36961 -1.52496,-0.846422 -2.9658,-1.833232 -4.32079,-2.924466 -5.80672,-4.498515 -11.85306,-8.736439 -17.12756,-13.857444 -1.20064,-1.273478 -2.46576,-2.490711 -3.60191,-3.820491 -3.83841,-4.492699 -7.61871,-10.109369 -8.03617,-16.156042 -0.0558,-0.807605 0.095,-1.616242 0.14236,-2.424298 -1.15744,0.96668 0.42875,-0.364432 0.58503,-0.443566 0.44683,-0.226258 0.94289,-0.360624 1.43795,-0.444599 2.86649,-0.486116 5.73077,0.228228 8.47238,0.980376 1.32447,0.491857 2.6756,0.918951 3.9734,1.475609 6.30675,2.70515 12.5986,6.660158 17.15423,11.794671 1.03965,1.171718 1.89401,2.491462 2.84092,3.737005 0.65272,1.2886 1.41237,2.529734 1.95819,3.865893 0.96069,2.35188 1.51109,4.84428 1.60232,7.378142 0.13241,3.674718 -0.24984,2.580201 -0.83945,5.844429 -0.0166,0.09696 0.0836,0.17898 0.12555,0.268601 -0.33975,0.372894 -0.60361,0.82995 -1.01923,1.118663 -1.08975,0.757007 -4.34101,-0.485516 -5.52314,-0.904525 z"
     id="path83"
     style="fill:#d0d0d0;stroke:#d1d1d1;stroke-width:0.960962" />
  <path
     d="m 182.0558,166.63924 c 0.16369,2.3759 0.0906,4.73059 -0.14659,7.07347 -0.0965,0.95375 -0.31352,3.09444 -0.71613,4.1111 -0.14589,0.3685 -0.44972,0.685 -0.67458,1.0275 0.14876,-0.32665 0.7776,-0.69367 0.4463,-0.97993 -0.32648,-0.28201 -0.93743,0.13855 -1.42217,0.13681 -0.56512,-0.002 -1.1368,-0.0747 -1.70266,-0.14769 -2.36388,-0.30488 -4.71158,-0.84559 -7.02802,-1.35199 -0.98468,-0.24222 -1.98246,-0.45064 -2.95402,-0.7266 -1.74067,-0.49418 -5.19873,-1.69991 -6.84448,-2.24419 -3.08643,-1.02078 -6.17525,-2.01531 -9.31318,-2.9284 -0.76038,-0.19859 -1.51806,-0.40455 -2.28112,-0.59567 -0.52082,-0.13059 -1.04496,-0.2519 -1.57011,-0.36925 -0.42928,-0.096 -1.19148,-0.24412 -1.19843,-0.23102 -1.16762,2.18884 -1.29126,1.66309 1.25079,2.347 9.32017,3.15372 17.61509,7.79445 26.00563,12.1455 2.42144,1.41913 6.85,3.16387 5.94979,5.79754 -0.0894,0.26168 -0.29567,0.48776 -0.44353,0.73168 -1.46475,1.58688 0.34213,-0.22482 0.46062,-0.36682 0.14502,-0.1738 -0.35317,0.31442 -0.54998,0.45801 -0.38163,0.27847 -0.84031,0.46573 -1.27562,0.69448 -0.0716,0.0315 -0.41954,0.1989 -0.5438,0.20746 -1.16949,0.0806 -3.70195,-0.40188 -4.59462,-0.5251 -1.39946,-0.1939 -2.79844,-0.39168 -4.19757,-0.58764 -4.79727,-0.76023 -9.52264,-1.83482 -14.23937,-2.90776 -2.37915,-0.54122 -4.67517,-1.08705 -6.96586,-1.83464 -0.1973,-0.0843 -0.39463,-0.16853 -0.59194,-0.25281 -0.023,-0.0301 -0.0461,-0.11707 -0.0688,-0.0903 -0.42958,0.50683 -1.17695,0.9497 -1.18415,1.56853 -0.003,0.29712 0.78043,0.26108 1.16122,0.40738 1.34011,0.51463 3.57322,1.48895 4.70441,1.97197 7.20878,3.36028 14.0562,7.12955 20.62648,11.14178 2.83559,1.91925 5.51009,3.69724 6.62692,6.3825 0.0971,0.7337 -0.0602,1.4924 -0.612,2.07403 0.40863,-0.40096 0.88674,-0.76701 1.22589,-1.20285 0.10013,-0.12877 -0.31411,0.18897 -0.49299,0.26101 -1.01312,0.40797 -2.11984,0.48141 -3.28928,0.56197 -3.28081,0.15322 -6.50425,-0.60839 -9.72107,-1.24795 -3.81727,-0.69933 -7.64979,-1.41867 -11.51707,-1.75986 -2.45804,-0.0528 -5.9338,-0.70027 -8.06265,0.19444 -2.13492,1.56469 -3.23889,3.26873 -3.99142,5.39417 -0.47888,1.71261 -0.69943,3.47322 -0.86671,5.23544 0.28422,0.71645 1.45732,1.13002 2.29455,1.5231 0,0 1.60911,-1.54281 1.60911,-1.54281 -0.73681,-0.33877 -1.87378,-0.71482 -2.04591,-1.36158 0.1571,-1.7527 0.38251,-3.50325 0.8919,-5.19868 0.31812,-0.85376 0.66424,-1.64226 1.19208,-2.42749 0.13051,-0.19415 0.24321,-0.39597 0.39114,-0.58271 0.12733,-0.16079 0.60369,-0.594 0.43272,-0.45732 -0.43831,0.35036 -0.82473,0.73352 -1.23709,1.10028 0.45834,-0.24692 0.63729,-0.39549 1.2799,-0.4734 0.3686,-0.0447 0.75658,-0.0197 1.13613,-0.0219 1.82575,-0.0105 3.6626,0.0258 5.50034,0.20119 3.85496,0.33434 7.67976,1.03274 11.48341,1.738 3.24091,0.64996 6.48127,1.42664 9.79299,1.30909 3.48035,-0.21812 3.75013,-0.36663 5.94666,-2.56051 0.45849,-0.66612 0.63642,-1.40763 0.43317,-2.18978 -1.23881,-2.69652 -3.9059,-4.49608 -6.8077,-6.42696 -6.59529,-4.00885 -13.47692,-7.7618 -20.66327,-11.1673 -1.73756,-0.7604 -2.99246,-1.33188 -4.68969,-2.01287 -0.41356,-0.16588 -0.85585,-0.60872 -1.25333,-0.47839 -0.89905,0.29479 -1.3963,0.98815 -1.99645,1.54394 -0.18184,0.16844 1.53866,0.39481 0.80715,0.39704 2.32066,0.72858 4.64188,1.26594 7.04181,1.80259 4.72996,1.05771 9.46067,2.13726 14.26089,2.92466 1.39217,0.20312 2.78428,0.40634 4.17624,0.61112 1.32325,0.19344 3.25084,0.61797 4.68711,0.63037 0.12035,5.2e-4 0.55099,-0.15384 0.61839,-0.17613 0.41505,-0.26121 0.92012,-0.40749 1.32302,-0.68431 1.30283,-0.89516 2.40636,-1.97666 3.26426,-3.12746 0.12627,-0.25858 0.31174,-0.50219 0.37873,-0.77575 0.66643,-2.72166 -3.68375,-4.43605 -6.24091,-5.89471 -8.4413,-4.32761 -16.73805,-8.9749 -26.02586,-12.22261 -2.76148,-0.7732 -1.65861,-0.8789 -4.29485,0.80453 -0.064,0.0409 0.18099,0.007 0.27042,0.0215 0.30587,0.0488 0.61054,0.1059 0.91315,0.16928 1.59442,0.33477 2.14614,0.49883 3.85423,0.93394 3.13848,0.90345 6.23043,1.88585 9.31318,2.90701 1.57996,0.52336 5.18384,1.78915 6.85864,2.27084 0.97229,0.27959 1.97162,0.4908 2.95733,0.7362 2.32802,0.51758 4.6794,1.05767 7.05321,1.38927 0.50483,0.0706 2.73297,0.35599 3.27714,0.0922 1.0933,-0.53009 1.86036,-1.33539 2.79072,-2.00311 0.20315,-0.3505 0.47649,-0.67977 0.60951,-1.05146 0.36844,-1.02968 0.57603,-3.14585 0.6694,-4.10829 0.22866,-2.35694 0.29812,-4.72477 0.17927,-7.11117 z"
     id="path84"
     style="fill:#d0d0d0;stroke:#d1d1d1;stroke-width:0.960962" />
  <path
     d="m 149.84056,131.88968 -4.40758,4.49645"
     stroke-width="0.960962"
     id="path85"
     style="fill:#d0d0d0;stroke:#d1d1d1" />
  <text
     transform="matrix(0,1.0100304,-0.99006921,0,0,0)"
     stroke-width="0.960931"
     style="font-size:5.89739px;white-space:pre;fill:#adadad;fill-opacity:1;stroke:#d1d1d1"
     xml:space="preserve"
     id="text85"
     x="-42.6982"
     y="-244.08066" />
  <text
     xml:space="preserve"
     transform="scale(0.26458333)"
     id="text2"
     style="white-space:pre;shape-inside:url(#rect2);display:inline;fill:#adadad;stroke:#7f7f7f;stroke-width:0.377953;stroke-linecap:round;stroke-linejoin:round" />
  <text
     xml:space="preserve"
     transform="scale(0.26458333)"
     id="text3"
     style="white-space:pre;shape-inside:url(#rect3);display:inline;fill:#adadad;stroke:#7f7f7f;stroke-width:0.377953;stroke-linecap:round;stroke-linejoin:round" />
  <text
     xml:space="preserve"
     style="font-style:normal;font-variant:normal;font-weight:100;font-stretch:normal;font-size:7.05556px;font-family:'Isabella Sans';-inkscape-font-specification:'Isabella Sans, Thin';font-variant-ligatures:normal;font-variant-caps:normal;font-variant-numeric:normal;font-variant-east-asian:normal;white-space:pre;inline-size:47.8554;display:inline;fill:#000000;fill-opacity:1;stroke:#000000;stroke-width:0.100144;stroke-linecap:round;stroke-linejoin:round;stroke-dasharray:none;stroke-opacity:1"
     x="135.49164"
     y="49.091171"
     id="text4"
     transform="matrix(0.02077973,3.6202952,-3.1305839,-0.00300747,258.27257,-462.59509)"
     inkscape:transform-center-x="14.692552"
     inkscape:transform-center-y="4.0730068"><tspan
       x="135.49164"
       y="49.091171"
       id="tspan1">A L I S A B E T </tspan><tspan
       x="135.49164"
       y="57.910621"
       id="tspan2">H</tspan></text>
  <text
     xml:space="preserve"
     transform="scale(0.26458333)"
     id="text5"
     style="white-space:pre;shape-inside:url(#rect5);display:inline;fill:#adadad;stroke:#7f7f7f;stroke-width:0.377953;stroke-linecap:round;stroke-linejoin:round" />
  <text
     xml:space="preserve"
     transform="scale(0.26458333)"
     id="text6"
     style="font-size:26.6667px;white-space:pre;shape-inside:url(#rect6);display:inline;fill:#adadad;stroke:#7f7f7f;stroke-width:0.377953;stroke-linecap:round;stroke-linejoin:round" />
</svg>
